<?xml version="1.0" encoding="utf-8"?>
<!-- Uploaded to: SVG Repo, www.svgrepo.com, Generator: SVG Repo Mixer Tools -->
<svg fill="#000000" height="20px" width="20px" version="1.2" baseProfile="tiny" id="Layer_1" xmlns="http://www.w3.org/2000/svg" xmlns:xlink="http://www.w3.org/1999/xlink"
	  viewBox="-63 65 128 128" xml:space="preserve">
<path d="M-40.5,84.8c0,0,1,0,1.4,0c0.4,0,15-3.7,18.6-4.5c0.7,2.5,2.2,4.6,4.4,5.9v7.2H-6v-7.5c1.9-1.3,3.3-3.1,4-5.4
	c4.5,1.1,17.3,4.3,17.7,4.3c0.5,0.1,1.4,0,1.4,0c4,0,7.3-3.3,7.3-7.3s-3.3-7.3-7.3-7.3c-0.5,0-1.2,0.1-1.2,0.1l-18.1,4
	c-1.4-3.6-4.9-6.2-9-6.2c-4.2,0-7.7,2.7-9.1,6.4l-19-4.3c0,0-0.7-0.1-1.2-0.1c-4,0-7.3,3.3-7.3,7.3C-47.8,81.5-44.5,84.8-40.5,84.8
	 M37.4,152.1v0.2c0,0-10.6,21.7-10.8,22.4c-0.3,1.1-0.7,2.6-0.7,4.1c0,6.3,5.1,11.4,11.4,11.4s11.4-5.1,11.4-11.4
	c-0.1-2.4-1-4.3-1-4.3L37.4,152.1z M48.5,139.9v-12.1c0-18.1-17.4-17.4-17.4-17.4H9.2V104l-11.6-6.2h-17.1l-11.5,6.3v6.4h-19.7v21.8
	h77.1v7.6H24v8.2h26.5v-8.2H48.5z"/>
</svg>